<svg width="15" height="19" viewBox="0 0 15 19" fill="none" xmlns="http://www.w3.org/2000/svg">
<path d="M7.43615 10.5338C7.45441 10.5338 7.47267 10.5338 7.49458 10.5338C7.50188 10.5338 7.50918 10.5338 7.51649 10.5338C7.52744 10.5338 7.54205 10.5338 7.55301 10.5338C8.62299 10.5149 9.48847 10.1268 10.1275 9.3846C11.5335 7.7494 11.2998 4.9462 11.2742 4.67869C11.1829 2.67049 10.2626 1.70972 9.50307 1.26135C8.93704 0.926025 8.27607 0.745174 7.5384 0.730103H7.51284C7.50919 0.730103 7.50188 0.730103 7.49823 0.730103H7.47632C7.07097 0.730103 6.27487 0.797922 5.51165 1.24628C4.74476 1.69464 3.8099 2.65542 3.71861 4.67869C3.69304 4.9462 3.45933 7.7494 4.86527 9.3846C5.50069 10.1268 6.36617 10.5149 7.43615 10.5338ZM4.69364 4.77289C4.69364 4.76159 4.69729 4.75028 4.69729 4.74275C4.8178 2.04128 6.67657 1.75116 7.47267 1.75116H7.48727C7.49458 1.75116 7.50553 1.75116 7.51649 1.75116C8.50248 1.77377 10.1787 2.18822 10.2919 4.74275C10.2919 4.75405 10.2919 4.76535 10.2955 4.77289C10.2992 4.79926 10.5548 7.36133 9.39352 8.71018C8.93339 9.2452 8.31989 9.50894 7.51284 9.51647C7.50553 9.51647 7.50188 9.51647 7.49458 9.51647C7.48727 9.51647 7.48362 9.51647 7.47632 9.51647C6.67292 9.50894 6.05576 9.2452 5.59929 8.71018C4.44166 7.36886 4.68999 4.79549 4.69364 4.77289Z" fill="#949494"/>
<path d="M14.999 15.1831C14.999 15.1793 14.999 15.1756 14.999 15.1718C14.999 15.1416 14.9953 15.1115 14.9953 15.0776C14.9734 14.3316 14.9259 12.5871 13.3411 12.0295C13.3301 12.0257 13.3155 12.022 13.3045 12.0182C11.6576 11.5849 10.2881 10.6053 10.2735 10.594C10.0508 10.432 9.74402 10.4885 9.587 10.7183C9.42997 10.9481 9.48474 11.2646 9.7075 11.4266C9.76959 11.4719 11.223 12.5155 13.0416 12.9978C13.8925 13.3105 13.9874 14.2487 14.013 15.1077C14.013 15.1416 14.013 15.1718 14.0166 15.2019C14.0203 15.541 13.9984 16.0647 13.94 16.3662C13.3484 16.7128 11.0295 17.9109 7.50181 17.9109C3.98877 17.9109 1.65526 16.709 1.06002 16.3624C1.00159 16.061 0.976027 15.5373 0.983331 15.1982C0.983331 15.168 0.986983 15.1379 0.986983 15.104C1.01255 14.2449 1.10749 13.3068 1.95836 12.994C3.77697 12.5118 5.23039 11.4643 5.29247 11.4229C5.51523 11.2609 5.57 10.9444 5.41298 10.7145C5.25595 10.4847 4.9492 10.4282 4.72644 10.5902C4.71183 10.6015 3.3497 11.5811 1.69543 12.0144C1.68083 12.0182 1.66987 12.022 1.65892 12.0257C0.0740301 12.5871 0.0265566 14.3316 0.00464579 15.0738C0.00464579 15.1077 0.0046457 15.1379 0.000993893 15.168C0.000993893 15.1718 0.000993893 15.1756 0.000993893 15.1793C-0.00265792 15.3752 -0.00630965 16.3812 0.187236 16.8861C0.223754 16.9841 0.289487 17.067 0.37713 17.1235C0.486685 17.1988 3.11234 18.9245 7.50546 18.9245C11.8986 18.9245 14.5242 17.1951 14.6338 17.1235C14.7178 17.067 14.7872 16.9841 14.8237 16.8861C15.0063 16.385 15.0026 15.379 14.999 15.1831Z" fill="#949494"/>
</svg>
